<?xml version="1.0" encoding="utf-8"?>
<!-- Generator: Adobe Illustrator 17.0.0, SVG Export Plug-In . SVG Version: 6.00 Build 0)  -->
<!DOCTYPE svg PUBLIC "-//W3C//DTD SVG 1.1//EN" "http://www.w3.org/Graphics/SVG/1.1/DTD/svg11.dtd">
<svg version="1.1" id="Layer_1" xmlns="http://www.w3.org/2000/svg" xmlns:xlink="http://www.w3.org/1999/xlink" x="0px" y="0px"
	 width="425.737px" height="115.429px" viewBox="0 0 425.737 115.429" enable-background="new 0 0 425.737 115.429"
	 xml:space="preserve">
<g>
	<polygon fill="#EC1624" points="191.697,114.637 235.267,114.637 265.283,1.839 221.715,1.839 	"/>
	<path fill="#FFFFFF" d="M193.011,17.379l21.744,81.717h-11.408l-21.746-81.717L193.011,17.379 M204.952,1.839h-43.57
		l30.021,112.798h43.57L204.952,1.839L204.952,1.839z"/>
	<polygon fill="#FFFFFF" points="144.273,16.842 144.273,2.434 78.498,2.434 78.498,115.429 144.273,115.429 144.273,101.017 
		93.264,101.017 93.264,66.641 132.861,66.641 132.861,52.231 93.264,52.231 93.264,16.842 	"/>
	<polygon fill="#FFFFFF" points="348.688,16.842 348.688,2.434 282.915,2.434 282.915,115.429 348.688,115.429 348.688,101.017 
		297.682,101.017 297.682,66.641 337.28,66.641 337.28,52.231 297.682,52.231 297.682,16.842 	"/>
	<polygon fill="#FFFFFF" points="19.035,101.017 19.035,2.561 4.267,2.561 4.267,115.429 56.62,115.429 56.62,101.017 	"/>
	<polygon fill="#FFFFFF" points="385.639,101.017 385.639,2.561 370.874,2.561 370.874,115.429 423.224,115.429 423.224,101.017 	
		"/>
</g>
</svg>
